<svg width="38" height="39" viewBox="0 0 38 39" fill="none" xmlns="http://www.w3.org/2000/svg">
<path d="M20.7131 27V13.9091H23.2614V27H20.7131ZM22 11.8892C21.5568 11.8892 21.1761 11.7415 20.858 11.446C20.5455 11.1449 20.3892 10.7869 20.3892 10.3722C20.3892 9.9517 20.5455 9.59375 20.858 9.29829C21.1761 8.99716 21.5568 8.84659 22 8.84659C22.4432 8.84659 22.821 8.99716 23.1335 9.29829C23.4517 9.59375 23.6108 9.9517 23.6108 10.3722C23.6108 10.7869 23.4517 11.1449 23.1335 11.446C22.821 11.7415 22.4432 11.8892 22 11.8892Z" fill="#64FFDA"/>
<path d="M16.3523 27.2642C15.5227 27.2642 14.7756 27.1165 14.1108 26.821C13.4517 26.5199 12.929 26.0767 12.5426 25.4915C12.1619 24.9062 11.9716 24.1847 11.9716 23.3267C11.9716 22.5881 12.108 21.9773 12.3807 21.4943C12.6534 21.0114 13.0256 20.625 13.4972 20.3352C13.9688 20.0455 14.5 19.8267 15.0909 19.679C15.6875 19.5256 16.304 19.4148 16.9403 19.3466C17.7074 19.267 18.3295 19.196 18.8068 19.1335C19.2841 19.0653 19.6307 18.9631 19.8466 18.8267C20.0682 18.6847 20.179 18.4659 20.179 18.1705V18.1193C20.179 17.4773 19.9886 16.9801 19.608 16.6278C19.2273 16.2756 18.679 16.0994 17.9631 16.0994C17.2074 16.0994 16.608 16.2642 16.1648 16.5938C15.7273 16.9233 15.4318 17.3125 15.2784 17.7614L12.3977 17.3523C12.625 16.5568 13 15.892 13.5227 15.358C14.0455 14.8182 14.6847 14.4148 15.4403 14.1477C16.196 13.875 17.0313 13.7386 17.946 13.7386C18.5767 13.7386 19.2045 13.8125 19.8295 13.9602C20.4545 14.108 21.0256 14.3523 21.5426 14.6932C22.0597 15.0284 22.4744 15.4858 22.7869 16.0653C23.1051 16.6449 23.2642 17.3693 23.2642 18.2386V27H20.2983V25.2017H20.196C20.0085 25.5653 19.7443 25.9062 19.4034 26.2244C19.0682 26.5369 18.6449 26.7898 18.1335 26.983C17.6278 27.1705 17.0341 27.2642 16.3523 27.2642ZM17.1534 24.9972C17.7727 24.9972 18.3097 24.875 18.7642 24.6307C19.2188 24.3807 19.5682 24.0511 19.8125 23.642C20.0625 23.233 20.1875 22.7869 20.1875 22.304V20.7614C20.0909 20.8409 19.9261 20.9148 19.6932 20.983C19.4659 21.0511 19.2102 21.1108 18.9261 21.1619C18.642 21.2131 18.3608 21.2585 18.0824 21.2983C17.804 21.3381 17.5625 21.3722 17.358 21.4006C16.8977 21.4631 16.4858 21.5653 16.1222 21.7074C15.7585 21.8494 15.4716 22.0483 15.2614 22.304C15.0511 22.554 14.946 22.8778 14.946 23.2756C14.946 23.8438 15.1534 24.2727 15.5682 24.5625C15.983 24.8523 16.5114 24.9972 17.1534 24.9972Z" fill="#64FFDA"/>
<circle cx="22" cy="10.5" r="1.5" fill="#64FFDA"/>
<path d="M17.2857 1L1 19.1636L19.8571 38L29.2857 27.2364L37 19.1636L17.2857 1Z" stroke="#64FFDA"/>
</svg>